<svg width="77" height="77" viewBox="0 0 77 77" fill="none" xmlns="http://www.w3.org/2000/svg">
<path d="M77 38.5C77 59.763 59.763 77 38.5 77C17.237 77 0 59.763 0 38.5C0 17.237 17.237 0 38.5 0C59.763 0 77 17.237 77 38.5Z" fill="black"/>
<path d="M20 52.52C20 52.3067 20.12 52.2 20.36 52.2C21.5067 52.2 22.5067 52.0133 23.36 51.64C24.2133 51.24 25.04 50.4533 25.84 49.28L45.24 20.2C45.32 20.0667 45.44 20 45.6 20H45.96C46.0933 20 46.16 20.0667 46.16 20.2L45.24 48.6C45.2133 50.04 45.4533 51 45.96 51.48C46.4667 51.96 47.2533 52.2 48.32 52.2C48.56 52.2 48.68 52.3067 48.68 52.52C48.68 52.7333 48.5467 52.84 48.28 52.84C47.6667 52.84 47.0133 52.8 46.32 52.72C45.4667 52.6667 44.8667 52.64 44.52 52.64H43.44C43.04 52.64 42.2533 52.6667 41.08 52.72C40.2 52.8 39.3333 52.84 38.48 52.84C38.2933 52.84 38.16 52.8133 38.08 52.76C38.0267 52.7333 38 52.6533 38 52.52C38 52.3067 38.1467 52.2 38.44 52.2C39.88 52.2 40.96 51.96 41.68 51.48C42.4 51 42.7733 50.04 42.8 48.6L43 43.24C43.0267 42.8133 42.88 42.44 42.56 42.12C42.2667 41.8 41.8933 41.64 41.44 41.64H33.24C32.8133 41.64 32.3467 41.7733 31.84 42.04C31.36 42.28 31 42.5867 30.76 42.96L26.56 49.28C26 50.16 25.72 50.8 25.72 51.2C25.72 51.6 25.9333 51.8667 26.36 52C26.8133 52.1333 27.48 52.2 28.36 52.2C28.6533 52.2 28.8 52.3067 28.8 52.52C28.8 52.6533 28.76 52.7333 28.68 52.76C28.6267 52.8133 28.5067 52.84 28.32 52.84C27.8667 52.84 27.16 52.8133 26.2 52.76C25.4 52.68 24.64 52.64 23.92 52.64C23.5467 52.64 22.96 52.6667 22.16 52.72C21.5467 52.8 20.96 52.84 20.4 52.84C20.1333 52.84 20 52.7333 20 52.52ZM32.92 39.72C32.76 39.96 32.68 40.1867 32.68 40.4C32.68 40.6133 32.76 40.7867 32.92 40.92C33.08 41.0267 33.3067 41.08 33.6 41.08H41.44C41.8933 41.08 42.28 40.92 42.6 40.6C42.92 40.28 43.0933 39.9067 43.12 39.48L43.56 25.44V25.32C43.56 24.92 43.4667 24.72 43.28 24.72C43.12 24.72 42.9333 24.88 42.72 25.2L32.92 39.72Z" fill="white"/>
</svg>
